<?xml version="1.0" standalone="no"?>
<!DOCTYPE svg PUBLIC "-//W3C//DTD SVG 20010904//EN"
 "http://www.w3.org/TR/2001/REC-SVG-20010904/DTD/svg10.dtd">
<svg version="1.0" xmlns="http://www.w3.org/2000/svg"
 width="399.000000pt" height="399.000000pt" viewBox="0 0 399.000000 399.000000"
 preserveAspectRatio="xMidYMid meet">
<metadata>
Created by potrace 1.11, written by Peter Selinger 2001-2013
</metadata>
<g transform="translate(0.000000,399.000000) scale(0.100000,-0.100000)"
fill="#000000" stroke="none">
<path d="M0 1995 l0 -1995 1995 0 1995 0 0 1995 0 1995 -1995 0 -1995 0 0
-1995z m765 1453 c20 -18 44 -77 109 -273 l83 -250 1272 -5 1273 -5 19 -24
c11 -13 22 -34 25 -47 9 -36 -371 -1169 -399 -1189 -19 -13 -135 -15 -889 -15
-478 0 -868 -3 -868 -7 0 -5 27 -87 59 -183 l58 -175 739 -5 c709 -5 741 -6
779 -25 92 -45 147 -130 153 -237 3 -55 0 -76 -21 -120 -67 -148 -231 -207
-373 -135 -58 30 -93 65 -125 127 -19 36 -23 61 -23 127 l0 83 -461 0 -461 0
0 -83 c0 -69 -4 -90 -26 -132 -31 -59 -67 -95 -128 -127 -62 -32 -176 -32
-238 1 -106 55 -158 150 -150 272 7 96 46 156 147 225 1 2 -149 459 -335 1017
l-338 1015 -166 4 c-91 3 -173 8 -183 12 -52 24 -58 118 -10 156 24 19 39 20
239 20 206 0 214 -1 239 -22z"/>
</g>
</svg>
